/* XPM */
static char *_4445194b5d743bea2d47bb0c2434262bv1Jt1cCb7VjwhY9[] = {
/* columns rows colors chars-per-pixel */
"64 64 256 2 ",
"   c #000000",
".  c #180809",
"X  c #190E0F",
"o  c #280606",
"O  c #24191A",
"+  c #350D15",
"@  c #0B1134",
"#  c #2E1D25",
"$  c #32262D",
"%  c #252302",
"&  c #540C10",
"*  c #6A171A",
"=  c #751119",
"-  c #44271D",
";  c #58291F",
":  c #751827",
">  c #4A2B24",
",  c #58342A",
"<  c #473739",
"1  c #593835",
"2  c #503027",
"3  c #653E37",
"4  c #6F322A",
"5  c #542121",
"6  c #684339",
"7  c #754439",
"8  c #6F472D",
"9  c #684F32",
"0  c #03327C",
"q  c #0C357A",
"w  c #29365E",
"e  c #463B44",
"r  c #553966",
"t  c #564749",
"y  c #7A4B43",
"u  c #785854",
"i  c #6D504B",
"p  c #76615F",
"a  c #554F6E",
"s  c #71666A",
"d  c #6B596C",
"f  c #8F141A",
"g  c #891D25",
"h  c #901929",
"j  c #AA1C23",
"k  c #B21E26",
"l  c #8D2A2C",
"z  c #882327",
"x  c #942B2C",
"c  c #96292A",
"v  c #963335",
"b  c #B7222A",
"n  c #A92C36",
"m  c #B82A34",
"M  c #A82A32",
"N  c #AE171E",
"B  c #D41D27",
"V  c #C6242C",
"C  c #C42933",
"Z  c #CC2932",
"A  c #D42B34",
"S  c #DC2C35",
"D  c #D42F3B",
"F  c #DC323B",
"G  c #D22A33",
"H  c #EA242C",
"J  c #E82D36",
"K  c #F42C34",
"L  c #F82A33",
"P  c #E7333C",
"I  c #F4313A",
"U  c #FB323B",
"Y  c #FC3037",
"T  c #E51F2C",
"R  c #864A2A",
"E  c #99532C",
"W  c #864A38",
"Q  c #8A5138",
"!  c #975435",
"~  c #944B35",
"^  c #A75C34",
"/  c #A45531",
"(  c #AC643F",
")  c #AD3B46",
"_  c #943D44",
"`  c #D83845",
"'  c #CA3947",
"]  c #E93845",
"[  c #F93642",
"{  c #875548",
"}  c #975847",
"|  c #8C544E",
" . c #AE4E53",
".. c #966A56",
"X. c #946851",
"o. c #A76649",
"O. c #A86857",
"+. c #AB7D59",
"@. c #A77856",
"#. c #AF6D52",
"$. c #B35B67",
"%. c #8E7371",
"&. c #B77767",
"*. c #A97A75",
"=. c #AF6E6B",
"-. c #CF4952",
";. c #E84956",
":. c #F34953",
">. c #CA6F57",
",. c #C47A69",
"<. c #D2776A",
"1. c #FA6777",
"2. c #ED6973",
"3. c #E45D6C",
"4. c #E9BE00",
"5. c #FFD515",
"6. c #FFE817",
"7. c #F7D133",
"8. c #FFE42C",
"9. c #AD825C",
"0. c #B2845C",
"q. c #B5895E",
"w. c #B48B64",
"e. c #B98476",
"r. c #B28C69",
"t. c #D08E78",
"y. c #E99675",
"u. c #F6AB7B",
"i. c #DCC13F",
"p. c #053886",
"a. c #0C3D8C",
"s. c #1B4A96",
"d. c #294A89",
"f. c #254D96",
"g. c #25529D",
"h. c #36538F",
"j. c #0246A7",
"k. c #154CA6",
"l. c #1B54AA",
"z. c #0153BC",
"x. c #1B5EBB",
"c. c #1B59B2",
"v. c #0652AF",
"b. c #2559AB",
"n. c #2755A4",
"m. c #345BA5",
"M. c #245DB6",
"N. c #1565B5",
"B. c #2A61BD",
"V. c #10639F",
"C. c #475A88",
"Z. c #6F758F",
"A. c #515EA0",
"S. c #0558C6",
"D. c #1A5FC1",
"F. c #005ED3",
"G. c #1B62C4",
"H. c #1C64CA",
"J. c #1E68CD",
"K. c #1C6BD7",
"L. c #0963D6",
"P. c #2665C9",
"I. c #3468C9",
"U. c #226BD4",
"Y. c #256CD7",
"T. c #356DD4",
"R. c #2471DC",
"E. c #3972D9",
"W. c #186BE2",
"Q. c #1974F0",
"!. c #2374E4",
"~. c #2878EA",
"^. c #377AE8",
"/. c #2B7DF3",
"(. c #287DF7",
"). c #3178EE",
"_. c #4974D3",
"`. c #4F7FE9",
"'. c #0022D0",
"]. c #A9768E",
"[. c #E17586",
"{. c #7B8197",
"}. c #7A83A9",
"|. c #2D83FE",
" X c #2D81F5",
".X c #3283F5",
"XX c #3285FC",
"oX c #368AFE",
"OX c #3B8CFE",
"+X c #3A84F7",
"@X c #3E91FF",
"#X c #3882EE",
"$X c #0AADFD",
"%X c #708BDB",
"&X c #468AF9",
"*X c #4394FF",
"=X c #4B94FE",
"-X c #4C98FF",
";X c #569BFE",
":X c #538BF3",
">X c #6D97F4",
",X c #6196EF",
"<X c #2CD7E7",
"1X c #898A97",
"2X c #908A92",
"3X c #AD8A91",
"4X c #979BA7",
"5X c #8D94AB",
"6X c #9BA0B1",
"7X c #A5AAB8",
"8X c #B8AAB9",
"9X c #AFABB4",
"0X c #B29DA1",
"qX c #CE948C",
"wX c #F68B97",
"eX c #E7A688",
"rX c #F5A88A",
"tX c #FBB996",
"yX c #EBB092",
"uX c #F593A9",
"iX c #D1B1B0",
"pX c #EFB0B2",
"aX c #D19C93",
"sX c #FAC79C",
"dX c #FEC38B",
"fX c #FEC8A4",
"gX c #FAD5A5",
"hX c #FFD6B3",
"jX c #FEE9B9",
"kX c #FEF3B2",
"lX c #B8BCC7",
"zX c #B0B4CA",
"xX c #86A9F9",
"cX c #8EAEF0",
"vX c #AFBDF1",
"bX c #8DA1E5",
"nX c #CDBBC6",
"mX c #E3BEC3",
"MX c #ABC6FD",
"NX c #BFC4D1",
"BX c #C7CBD3",
"VX c #D6D6D8",
"CX c #CBC9CE",
"ZX c #E7D9D9",
"AX c #EDD1D0",
"SX c #FFF9C6",
"DX c #ECE2DF",
"FX c #D9DCE3",
"GX c #C9D3EB",
"HX c #F9C5E1",
"JX c #DFE1E8",
"KX c #E8E7E7",
"LX c #F3E8E7",
"PX c #FDFDFD",
"IX c #F7F4F5",
"UX c #EFF0F6",
/* pixels */
"              PXPXPXPXPX                        PXuX1.1.1.1.wX                                                                  ",
"        UXUXKXKXUXPXPXPXDXKX                uX1.:.:.:.[ P PXPXPX1.HX                                                            ",
"    PXFXFXFXVXKXKXIXIXPXIXiXAX        IXuX2.] ] ] P P IXPX;.:.PX1.PX1.                                                          ",
"  UXFXGXVXVXFXKXKXUXIXPXIXZXCX      pX2.;.` ] ` P J F IX-.V AX:.J :.PX2.                                                        ",
"  BXNXBXBXKXCXVXKXKXIXIXIXIX|   DX[.-.` S ` F S S S A ZXB ZXLX2.IXB IX] pX                                                      ",
"GXzXlXlXNX5XlXVXFXKXKXIXIXLXLXmX$.C G G A A A A A Z V  .pXiXiXAXAXj ` ] ;.                                                      ",
"GXzXzXBXlXBXBXVXVXDXKXKXUXLXDXpXj b V G Z Z V V j ] wXHX:.C j g l x x l g m `                                                   ",
"GXFX6X7X8XNXCXBXVXVXKXDXLXDXZXiXj k V V b k ` wXwXM l c c c x x c v v x l l t l m                                               ",
"  6X6X7X7X9XlXCXCXVXVXFXVXZXVXiXf N k j ' wXM g . . . z x x c M c c x x x l l l z  .                                            ",
"  zX7X6X7X7X9XlXlXlXUXUXPXPXPXIXiXf N 3.g v * X O # O X R W 4 4 * : * z x v l l v l                                             ",
"    7X6X4X4X4X2XLXUXIXUXIXLXDXZXCXM g ~ 5 4 . { } } ..} O O.o.} o.X O O * l l l l                                               ",
"      6X4X1XVXBXCXCX9Xr.& & & - u o 5 W { o.O.O.} 0X0X~ &.&.&.+.&.$ O.X.X : l z |                                               ",
"        4XzX6X4Xr.& = = H J H V - o 4 } O.&.*.O.zX8XzX8X! t.&.&.&.8X8X=.X * z                                                   ",
"          6X2X& & f V A J J K J o o W O.&.&.t.0Xb.V.N.IXKXsXgXgXy.V.UX8Xe.                                                      ",
"          4Xd 4 4 k V S J K Y K : + W <.rXsXsXzX@ KX@ KXDXsXjXgX# UX$XKXtX                                                      ",
"                _ n C S P I Y L J & / y.yXsXgX*.@ '.@ DX0XyXsXhXjXSXSXSXSX                                                      ",
"                $.) m A J I U L K o <.rXsX5 t i yX<X<XiXyXyXfXhXjXSXSXSXSXSX                                                    ",
"                  _ m Z S K U Y L F <.rXdX# t u 9.p t < %.e.tXfXgXjXjXjXjXjXSX                                                  ",
"                   .) Z S I I U L H >.rXeX=.O $ e t %.i . w.t.eXtXsXfXgXhXfXhXa                                                 ",
"                  [.) C S P [ L Y H >.u.tXtXe...> $ 1 u O X *.r.t.t.eXeXeXyXe {.                                                ",
"                     .C A J J [ L H n <.rXtXsXfXsX3 O $ # $ . y =.*.*.*.t e                                                     ",
"                     .m Z S J K K T b >.t.rXtXsXtX].5X&.*.# # # # # $ i d fX                                                    ",
"                     .n C A J H K T B ~ >.t.rXtXsX+ + + . VX9X. { %.e.e.yX                                                      ",
"                     .n C Z S J L H B k.v &.y.tXpX: h = * o . &.r.t.eX0X                                                        ",
"                    $.n m Z S J L K T r ^.T.$.t.eXtXSX& & X.e.].qXqX                                                            ",
"                    CXv m V S K U L T j T.).^.E.e.t. .&.t.&.t.*.0X                                                              ",
"                       .n m A J U Y [ T : ).).+X`.~  .-.-. .                                                                    ",
"                      $.n m Z J I [ I [ [ A.*X+X&X&XS F `  .[.w h.                                                              ",
"                         .n C S K [ [ [ L r !.+X+X+X,X#X:X:X;X>XcXMXk.                                                          ",
"                        0X) m Z J I Y [ [ b `.5.8.6.6.dX@X*X*X-X;X;X>X:X% 8.kX                                                  ",
"                      wX) -.) D ` [ L [ L +X).i.8.5.8.7.*X*X-X-X-X-X-X;X&X&X4.                                                  ",
"                    HX) n ].' ` ` K [ [ )./.I.Y.9 4.9  Xv.@X*X*X*X*X=X;X=X;Xz.                                                  ",
"                    $.n l $. .-.` ] [ XX|.|..X Xj.v.z.#X@X-X*X*X*X*X*X@X&X:X,X  >X=X=X=X-X;X;X>X                                ",
"                  Z.) l h h $.' ` ] XX|.oX|.oXoX@X@X*X@X*X*X*X@X*X@X@XOX#XU.b.K.Q.|.XX*X*X*X*X=X;XMX                            ",
"                zX=.v l z : <.' ' ).|.|.|.|.oXoX@X@X*X@X*X@X@X@X@X@XoX.X~.k.S.L.Q.Q.|.&XOX*X*X*X=X=X                            ",
"                zX+ v z : : bX%X`.). X|.|.|.oXoXoX@X@X@X@X@X@X@X@X@Xz.@XW.j.S.F.L.W.~.(.+XOX+X+X#X#X=X  HXaXt.,.&.&.&.3X        ",
"              UXzX6XZ.& 5 & vX-X^.).(.(.(.|.|.|.oXOX X.X@X@X@X@XOXOXXX(.S.j.S.z.~.L.!.~..X+X).^.T.P.]. .o.o.o.} o.o.X.} ..].    ",
"              BX7X5X5X5X}.}.>X*X`.~.).!. X|. X|.XXoXoXOXOXOXG.@XoXXX(.U.G.j.j.j.S.L.K.~./.^.^.P.).d { | } } } } ..qX*.X.{ y ].  ",
"              9X6X5X].}.}.{.cX%X^.E.!.~./.(. Xl.oXoXoXOXOXOX.X.XXX X(.K.v.a.j.j.z.+XK.R.~.).!.(.a y { | { { v { | ..8 4 , , 1   ",
"                1Xs $ w t e %X_.B.=XW.!.!.Q.~. X X X.X.XoX.X.X X.X X(.c.p.p.p.j.v.S.L.R.~.W.Q.r 6 y y y 3 3 6 3 2 y.u.dXq.o.u.p ",
"                NX5XZ.s Z.a %XI.T.P.Y.W.!.!.~.~. X X X#X X X X X/.~.!.G.0 0 0 a.j.S.h.L.W.F.^.r i 7 6 3 8 , ; t.u.9.q.q.q.0.9.@.",
"                6X2X1X1X{.a bX_.I.bXY.W.W.!.!.~.R. X!. X X X X X!.R.G.k.0 0 0 p.j.z.S.S.S.!.e 3 3 6 , , ; ; q.@.0.q.w.w.w.q.9.@.",
"                            GX>XI.P.U.U.K.R.R.!.R.R.!.!.R.R.R.R.J.l.k.p.0 p.q q k.v.z.!.S.P.e 1 3 , 2 2 2 w.q.q.9.w.r.r.w.9.@.  ",
"                              ,XI.P.H.U.K.W.Y.K.R.R.R.U.J.U.U.J.x.k.s.q q q d.h.h.k.v.k.Y., 3 4 , > > - @.0.9.9.w.r.r.w.9.+.    ",
"                            MXT.T.P.G.K.K.K.H.K.J.J.U.U.J.J.M.b.s.s.d.q d.C.Z.    n.k.z.# 1 3 , , > > ..@.@.9.r.w.r.9.@.@.      ",
"                            `.T.P.P.H.H.H.K.H.U.J.J.J.x.M.l.g.s.d.d.h.{.            m.k.1 1 3 , 2 > X.....X...X.X.......        ",
"                          E.T.T.U.D.H.H.H.H.H.H.P.M.M.b.g.g.g.h.Z.                  n.1 2 , , 2 2 7 6 3 3 t 1 , t               ",
"                IX3XvX_.  `.T.Y.H.H.G.G.G.G.G.D.N.b.b.n.g.h.                          t < 2 2 - @.#.9.9.@.9.@.@.9.              ",
"            nXqX/.k.T.UX,XT.P.P.H.D.H.D.G.H.G.N.x.c.b.n.m.                              , 2 - X.o.9.9.q.q.q.9.+.                ",
"          0X=.XX&XxXxXxX`.I.P.P.D.G.H.D.G.D.G.G.x.c.n.m.                                s < { X.9.q.r.r.w.0.                    ",
"        eX..XX+X;X>X).U.T.P.D.D.D.G.G.G.G.D.D.x.c.b.g.                                      p @.9.q.9.9.X.                      ",
"        %.} _.+X&X>XvXE.P.P.P.D.N.G.G.G.D.D.N.x.b.m.                                                                            ",
"      t.| _.!.U.vXT.T.P.B.G.D.D.D.G.G.S.x.x.M.M.m.                                                                              ",
"      2X{ I.U.P.I.P.B.M.M.x.x.x.x.N.x.x.x.N.b.m.                                                                                ",
"      p y s R.B.B.M.M.n.l.b.k.b.c.c.c.c.c.b.m.                                                                                  ",
"      u Q Q G.x.c.l.n.g.f.f.g.k.s.g.g.g.g.Z.                                                                                    ",
"    w.u Q ! Q x.x.k.s.f.d.f.h.d.d.h.h.Z.                                                                                        ",
"    s y Q ! } } l.l.s.f.d.d.h.C.Z.                                                                                              ",
"    i 7 Q ! ( ( O.d.P.k.d.d.C.                                                                                                  ",
"    i 8 W ! / ( o.^ ! - - 2 8                                                                                                   ",
"      8 ~ E E ^ ^ ^ ^ ^ ^ E Q                                                                                                   ",
"      3 8 8 E E E E ^ ^ / !                                                                                                     ",
"        3 8 8 R E R E Q Q                                                                                                       ",
"            6 8 8 8 8 s                                                                                                         "
};
